{"title":"Age of Uprising The Legend of Michael Kohlhaas (2013) BRRIP XviD","uid":9548101,"size":1784482998,"categoryP":"video","categoryS":"movies","magnet":"?xt=urn:btih:179ee6ad00132c47849e072259019f245629a223&amp;dn=Age+of+Uprising+The+Legend+of+Michael+Kohlhaas+%282013%29+BRRIP+XviD&amp;tr=udp%3A%2F%2Ftracker.openbittorrent.com%3A80&amp;tr=udp%3A%2F%2Fopen.demonii.com%3A1337&amp;tr=udp%3A%2F%2Ftracker.coppersurfer.tk%3A6969&amp;tr=udp%3A%2F%2Fexodus.desync.com%3A6969","seeders":0,"leechers":1,"uploader":"sakhslitsa","files":4,"time":1391177098,"description":" &lt;a href=&quot;http://www.imdb.com/title/tt2054790/&quot; rel=&quot;nofollow&quot; target=&quot;_NEW&quot;&gt;http://www.imdb.com/title/tt2054790/&lt;/a&gt;\n\n\n\nFormat : AVI\nFormat/Info : Audio Video Interleave\nFile size : 1.66 GiB\nDuration : 2h 1mn\nOverall bit rate : 1 959 Kbps\n\nVideo\nID : 0\nFormat : MPEG-4 Visual\nFormat profile : Advanced Simple@L5\nFormat settings, BVOP : 2\nFormat settings, QPel : No\nFormat settings, GMC : No warppoints\nFormat settings, Matrix : Default (H.263)\nCodec ID : XVID\nCodec ID/Hint : XviD\nDuration : 2h 1mn\nBit rate : 1 567 Kbps\nWidth : 720 pixels\nHeight : 304 pixels\nDisplay aspect ratio : 2.35:1\nFrame rate : 23.976 fps\nColor space : YUV\nChroma subsampling : 4:2:0\nBit depth : 8 bits\nScan type : Progressive\nCompression mode : Lossy\nBits/(Pixel*Frame) : 0.299\nStream size : 1.33 GiB (80%)\nWriting library : XviD 1.2.1 (UTC 2008-12-04)\n\nAudio\nID : 1\nFormat : AC-3\nFormat/Info : Audio Coding 3\nMode extension : CM (complete main)\nFormat settings, Endianness : Big\nCodec ID : 2000\nDuration : 2h 1mn\nBit rate mode : Constant\nBit rate : 384 Kbps\nChannel(s) : 6 channels\nChannel positions : Front: L C R, Side: L R, LFE\nSampling rate : 48.0 KHz\nBit depth : 16 bits\nCompression mode : Lossy\nStream size : 334 MiB (20%)\nAlignment : Aligned on interleaves\nInterleave, duration : 64 ms (1.53 video frames)\nInterleave, preload duration : 192 ms\n\n\nEncoded....................FWOLF\n\nSource.....................720p.BluRay.DTS.x264-PublicHD (Thanks!)\n\nSample.....................Yes\n\nSubs.......................(idx)...English\n\nSubs.......................(srt) ...No\n\n\nGreetz To: PsiX | Blacksheep | CFR | tomcat-12...\n.....and all P2P Encoders and Groups.....","torrent":{"xt":"urn:btih:179ee6ad00132c47849e072259019f245629a223","amp;dn":"Age+of+Uprising+The+Legend+of+Michael+Kohlhaas+%282013%29+BRRIP+XviD","amp;tr":["udp%3A%2F%2Ftracker.openbittorrent.com%3A80","udp%3A%2F%2Fopen.demonii.com%3A1337","udp%3A%2F%2Ftracker.coppersurfer.tk%3A6969","udp%3A%2F%2Fexodus.desync.com%3A6969"],"infoHash":"179ee6ad00132c47849e072259019f245629a223","infoHashBuffer":{"type":"Buffer","data":[23,158,230,173,0,19,44,71,132,158,7,34,89,1,159,36,86,41,162,35]},"announce":[],"urlList":[]}}